<svg xmlns="http://www.w3.org/2000/svg" width="24" height="24" viewBox="0 0 24 24">
  <path d="M13.6,11.4c0.1,0.6-0.2,1.1-0.7,1.5c-0.6,0.4-1.1,0.4-1.6,0.1c-0.4-0.2-0.6-0.5-0.8-0.9c-0.1-0.4-0.1-0.8,0-1.2c0.1-0.4,0.4-0.7,0.8-0.9c0.4-0.2,0.7-0.2,1.1-0.2c0.4,0.1,0.7,0.2,0.9,0.5S13.6,11.1,13.6,11.4L13.6,11.4z M15.3,11.1c-0.1-1.1-0.7-1.9-1.7-2.4c-1-0.6-1.9-0.6-2.9-0.2c-0.6,0.3-1.1,0.7-1.5,1.3c-0.4,0.6-0.5,1.2-0.5,1.9c0,0.9,0.4,1.7,1.1,2.3c0.7,0.6,1.5,0.9,2.4,0.8c0.9-0.1,1.6-0.5,2.2-1.2C15.1,12.9,15.4,12,15.3,11.1z M18.8,3.2c-0.2-0.3-0.5-0.5-0.8-0.7c-0.4-0.2-0.6-0.3-0.9-0.3c-0.2,0-0.6-0.1-1-0.2c-2.9-0.5-5.6-0.5-8.3,0C7.3,2.1,7,2.1,6.8,2.2c-0.2,0-0.5,0.2-0.8,0.3C5.6,2.7,5.4,2.9,5.2,3.2c0.3,0.3,0.7,0.5,1.1,0.7C6.8,4,7.1,4.1,7.4,4.1c0.3,0,0.7,0.1,1.3,0.2c2.2,0.3,4.4,0.3,6.6,0c0.6-0.1,1.1-0.1,1.3-0.2c0.3,0,0.6-0.1,1.1-0.3C18.1,3.7,18.5,3.4,18.8,3.2L18.8,3.2z M19.6,18.4c-0.1,0.3-0.2,0.6-0.2,1.1c-0.1,0.5-0.1,0.9-0.2,1.2s-0.2,0.7-0.4,1c-0.2,0.4-0.5,0.6-0.9,0.8c-0.8,0.5-1.8,0.8-2.8,1.1s-2,0.3-3,0.3s-2-0.1-3-0.3c-0.5-0.1-0.9-0.2-1.2-0.3c-0.3-0.1-0.7-0.2-1.1-0.4c-0.4-0.2-0.8-0.4-1.1-0.6S5.2,21.9,5,21.5c-0.2-0.9-0.5-2.4-0.8-4.3L4.3,17l0.3-0.1C6.7,18.3,9.2,19,12,19c2.8,0,5.3-0.7,7.5-2.2c0.2,0.1,0.3,0.2,0.4,0.3c0,0.2,0,0.4-0.1,0.7S19.6,18.3,19.6,18.4L19.6,18.4z M22.3,4.2c-0.3,1.6-0.8,4.9-1.6,9.6c0,0.3-0.2,0.6-0.4,0.8c-0.2,0.3-0.4,0.5-0.6,0.6s-0.5,0.3-0.8,0.5c-2.5,1.2-5.5,1.7-9,1.3c-2.4-0.3-4.4-0.9-5.8-2c-0.1-0.1-0.3-0.2-0.4-0.4c-0.1-0.1-0.2-0.3-0.3-0.5c-0.1-0.2-0.1-0.4-0.1-0.5c0-0.1-0.1-0.3-0.1-0.6c0-0.3-0.1-0.4-0.1-0.5C3,12,2.9,11.3,2.7,10.3c-0.2-1-0.3-1.8-0.4-2.4C2.2,7.3,2.1,6.6,2,5.7C1.8,4.9,1.7,4.1,1.6,3.4c0-0.3,0.1-0.5,0.3-0.7C2,2.5,2.2,2.3,2.4,2.2S2.7,1.9,3,1.7c0.3-0.1,0.5-0.3,0.7-0.3c0.2-0.1,0.4-0.2,0.7-0.3C5.6,0.7,7.2,0.3,9,0.2c3.7-0.4,7-0.1,10,0.7c1.5,0.5,2.6,1.1,3.2,1.8c0.2,0.2,0.2,0.4,0.2,0.8S22.3,4,22.3,4.2L22.3,4.2z"/>
</svg>
