<svg xmlns="http://www.w3.org/2000/svg" x="0px" y="0px" viewBox="0 0 24 24">
	<path d="M24,12.3c0,2.6-0.8,5-2.3,7.1s-3.5,3.5-5.9,4.3c-0.3,0.1-0.5,0-0.6-0.1C15,23.5,15,23.3,15,23.1v-3.3c0-1-0.3-1.8-0.8-2.2c0.6-0.1,1.1-0.2,1.6-0.3s1-0.3,1.5-0.6c0.5-0.3,0.9-0.6,1.3-1c0.3-0.4,0.6-1,0.8-1.6c0.2-0.7,0.3-1.5,0.3-2.4c0-1.3-0.4-2.3-1.2-3.2c0.4-0.9,0.3-2-0.1-3.2c-0.3-0.1-0.7,0-1.3,0.2c-0.6,0.2-1,0.4-1.4,0.7L15,6.5c-1-0.3-2-0.4-3-0.4s-2,0.1-3,0.4C8.8,6.4,8.6,6.2,8.3,6.1C8.1,5.9,7.6,5.7,7,5.5S6,5.2,5.7,5.3C5.2,6.4,5.2,7.5,5.6,8.4c-0.8,0.9-1.2,2-1.2,3.2c0,0.9,0.1,1.7,0.3,2.3c0.2,0.7,0.5,1.2,0.8,1.6c0.3,0.4,0.8,0.8,1.3,1s1,0.5,1.5,0.6c0.5,0.1,1,0.2,1.6,0.3C9.4,18,9.1,18.5,9,19.2c-0.2,0.1-0.5,0.2-0.7,0.2s-0.5,0.1-0.9,0.1c-0.3,0-0.7-0.1-1-0.3c-0.3-0.2-0.6-0.5-0.9-1c-0.2-0.3-0.5-0.6-0.8-0.8S4.2,17.1,4,17l-0.3,0c-0.2,0-0.4,0-0.5,0.1c-0.1,0-0.1,0.1-0.1,0.2c0,0.1,0.1,0.1,0.1,0.2s0.1,0.1,0.2,0.2l0.1,0.1c0.2,0.1,0.5,0.3,0.7,0.6s0.4,0.6,0.5,0.8L5,19.4c0.1,0.4,0.4,0.7,0.7,1c0.3,0.2,0.7,0.4,1,0.5C7.1,20.9,7.4,21,7.8,21c0.3,0,0.6,0,0.9-0.1L9,20.9c0,0.4,0,0.9,0,1.4c0,0.5,0,0.8,0,0.8c0,0.2-0.1,0.3-0.2,0.5c-0.1,0.1-0.3,0.2-0.6,0.1c-2.4-0.8-4.4-2.2-5.9-4.3S0,14.9,0,12.3c0-2.2,0.5-4.2,1.6-6S4.1,3,6,1.9s3.8-1.6,6-1.6c2.2,0,4.2,0.5,6,1.6c1.8,1.1,3.3,2.5,4.4,4.4S24,10.1,24,12.3L24,12.3z"/>
</svg>
