<svg xmlns="http://www.w3.org/2000/svg" width="623" height="150" viewBox="0 0 623 150">
<path d="M186.5,115c0,4.9,2.5,7.4,7.4,7.4h24.2V149h-24.5c-10.2,0-18.5-2.6-24.8-7.8c-6.8-5.5-10.2-13.3-10.2-23.4V72.4
	c0-10,3.4-17.8,10.2-23.4c6.3-5.2,14.6-7.8,24.8-7.8h24.5v26.1h-24.2c-4.9,0-7.4,2.5-7.4,7.4V115z M252.1,150
	c-10.8-0.2-19-3.7-24.8-10.5c-5.4-6.6-8.1-15.3-8.1-26.2v-6.2c0-0.9,0-1.5,0.1-1.7c2-23.8,12.9-35.7,32.7-35.7
	c10.8,0,19.1,3.6,24.9,10.9c5.3,6.7,7.9,15.5,7.9,26.5v6.2c0,9.3-2.7,18-8.1,26.1c-4.7,7-13,10.5-24.8,10.5L252.1,150L252.1,150z
	 M260.6,105.1c0-0.6,0-0.9-0.1-1.1c-0.6-4.5-1.1-7.4-1.7-8.6c-1.3-3-3.5-4.5-6.7-4.5c-5.7,0-8.5,4.8-8.5,14.3v9.3c0,0.4,0,0.7,0.1,1
	c0.8,8.3,3.6,12.5,8.4,12.5c5.7,0,8.5-4.6,8.5-13.9L260.6,105.1L260.6,105.1z M302.5,74.5c3.2-2.4,7.4-3.5,12.6-3.5h14.7V41.3h24.8
	V149h-40.2c-5.9,0-11.1-2.1-15.6-6.2c-4.2-3.9-7-8.8-8.5-14.7c-0.9-3.4-1.4-8.3-1.4-14.6v-4.2c0-6.1,0.4-11.3,1.3-15.6
	C291.7,85.9,295.8,79.5,302.5,74.5 M315.7,93.4c-0.4,0.7-0.7,1.7-0.9,3c-0.2,1.3-0.4,3.1-0.6,5.2v1.8c-0.1,0.3-0.1,0.8-0.1,1.7v9.1
	c0,0.8,0.1,1.7,0.2,2.8c0.1,1.1,0.3,2.4,0.5,4c0.7,4.1,3,6.1,6.9,6.1h8.2V90.8h-8.6c-2,0-3.5,0.6-4.7,1.7L315.7,93.4z M362.4,128.1
	c-1-4-1.6-8.8-1.6-14.6v-5.9c0-0.9,0-1.5,0.1-1.7c1-11.1,3.9-19.6,8.6-25.5c5.8-7.1,13.8-10.6,24.2-10.6c10.9,0,19.1,3.6,24.6,10.9
	c5,6.6,7.5,15.5,7.5,26.6v13.3H386v0.8c0.1,0.2,0.1,0.5,0.1,0.9c0.7,3.2,2.5,4.8,5.7,4.8h30V149h-35.7
	C374.1,149,366.2,142,362.4,128.1 M385.5,102.6h17.8c0-0.5-0.1-1.1-0.2-2c-0.1-0.8-0.3-1.9-0.5-3.3c-0.2-0.8-1-2.3-2.4-4.4
	c-1.7-1.4-3.7-2.1-5.9-2.1C388.4,90.8,385.5,94.7,385.5,102.6 M460.9,41.3v81.1h28.3V149h-56.1V41.3H460.9z M496.2,41.3h24.6v22.5
	h-24.6V41.3z M520.8,149h-24.6V71h24.6V149z M540.9,44.5c3.3-2.2,7.6-3.3,13-3.3h17.6v20h-11c-2.5,0-4.1,0.5-5,1.6
	c0,0.1-0.1,0.2-0.3,0.4c-0.8,1.1-1.3,3.9-1.4,8.2l-0.1,4.1v5.9h15.2v19.3h-15.2V149h-24.6V75.8c0-2.8,0.1-5.4,0.2-7.7
	c0.1-2.3,0.4-4.4,0.8-6.3C531.4,54.2,535,48.5,540.9,44.5 M608.6,124.9l0.8,0.8c0.8,0.8,2.5,1.3,4.8,1.3h7.8V149h-14.6
	c-8.7,0-15.5-3.9-20.4-11.6c-2.5-3.9-3.7-8.2-3.7-13V91h-10.5V71h10.5V48.5h24.6V71h14v20h-14v25.9
	C608.1,121.9,608.3,124.6,608.6,124.9"/>
<path d="M146.5,145.9h-24.9v-9.5H24.9v9.5H0v-34.4h146.5V145.9z M146.5,99.3h-24.9V24.9H24.9v74.4H0V0h146.5V99.3z
	 M54,59.7L36.2,69L54,78.2v14.9L25,77.5V60.8l29-15.7V59.7z M73.1,99.3H56.7l16.8-59.8h16.4L73.1,99.3z M121.6,60.8v16.7l-29,15.7
	V78.2l17.9-9.1l-17.9-9.4V45.1L121.6,60.8z"/>
<path d="M241.1,18.7h-4.9l-1.7,5.3h-2.7l5.6-17h2.7l5.6,17h-2.7L241.1,18.7z M236.7,16.6h3.9l-1.9-6.4L236.7,16.6z
	 M267.3,3.8c2,0.8,3.1,2.6,3.1,4.8c0,1.8-1.4,3.9-3.1,4.4c2.8,0.2,4.3,2.4,4.3,5.1c0,4.4-3.4,6.5-7.4,6.5c-1.7,0-3.5-0.4-5.2-0.8
	V3.3h5.1C265.1,3.3,266.3,3.4,267.3,3.8z M264,5.3h-2.4V12h2.4c2.2,0,3.8-1.3,3.8-3.6C267.8,6.1,266.1,5.3,264,5.3z M263.9,14.2
	h-2.3v7.7c0.8,0.2,1.7,0.4,2.5,0.4c2.8,0,4.9-1.4,4.9-4.3C268.9,14.7,266.6,14.2,263.9,14.2z M275,15.5c0-4,1.8-8.9,6.2-8.9
	c4.4,0,6.2,5,6.2,9c0,4.1-1.8,9-6.2,9C276.7,24.6,275,19.5,275,15.5z M277.6,15.7c0,3,0.7,6.7,3.6,6.7c2.9,0,3.6-3.9,3.6-6.9
	c0-3-0.8-6.9-3.6-6.9C278.3,8.7,277.6,12.6,277.6,15.7z M291.7,15.5c0-4,1.8-8.9,6.2-8.9c4.4,0,6.2,5,6.2,9c0,4.1-1.8,9-6.2,9
	C293.4,24.6,291.7,19.5,291.7,15.5z M294.2,15.7c0,3,0.7,6.7,3.6,6.7c2.9,0,3.6-3.9,3.6-6.9c0-3-0.8-6.9-3.6-6.9
	C295,8.7,294.2,12.6,294.2,15.7z M307.8,22c2.2-4.2,4.4-8.3,7-12.2l0.4-0.6h-6.7V7.1h9.8v2c-2.5,3.9-4.8,7.7-7,11.7l-0.5,1h8.2v2.2
	h-11.2L307.8,22L307.8,22z M344,24.1l-2.2-6.7h-6.2l-2.2,6.7h-2.7l6.6-20.8h2.8l6.6,20.8H344z M336.2,15.2h5L338.7,6L336.2,15.2z
	 M350,7.1h2.5v14.9h6v2.1H350V7.1z M362.1,7.1h2.5v14.9h6v2.1h-8.5V7.1z M374.3,7.1h9.3v2.1h-6.7v4.9h5.1v2.2h-5.1v5.6h7v2.2h-9.6
	L374.3,7.1L374.3,7.1z M391.4,11.4c0,0.9,0.1,1.1,0.1,1.2v11.5h-2.6v-17h3.2l5.4,11.8c0-0.9,0-1.1,0-1.2V7.1h2.6v17h-2.6L391.4,11.4
	z M429.2,13.7c0,5.1-2,10.4-7.9,10.4h-5.7V3.3h6C427.6,3.3,429.2,8.7,429.2,13.7z M418.3,5.4v16.6h3.1c4.4,0,5.2-4.7,5.2-8.2
	c0-3.4-0.6-8.4-5.1-8.4H418.3z M434,7.1h2.7v17H434V7.1z M448.7,8.6c-1.2,0-2.6,1-3.4,2.5c-0.6,1.2-0.9,2.9-0.9,4.6
	c0,1.6,0.2,3.2,0.8,4.3c0.8,1.5,1.9,2.5,3.6,2.5c1,0,1.8-0.2,2.2-0.3v-5.6h2.4v7.2c-0.4,0.2-2.1,0.8-4.7,0.8c-5.2,0-6.9-4.8-6.9-9
	c0-2.4,0.6-4.6,1.7-6.2c1.2-1.7,3-2.8,5.2-2.8c2,0,3,0.4,4.7,1.3l-1.1,1.7C452.4,9.5,450.9,8.6,448.7,8.6z M459.1,7.1h2.7v17h-2.7
	V7.1z M472.4,24.1h-2.5V9.3h-4.2V7.1h11v2.2h-4.2V24.1z M486.3,18.7h-4.9l-1.7,5.3h-2.7l5.6-17h2.7l5.6,17h-2.7L486.3,18.7z
	 M481.9,16.6h3.9l-1.9-6.4L481.9,16.6z M494.5,7.1h2.5v14.9h6v2.1h-8.5V7.1z M521.3,18.1c-1,0-2-0.5-2.1-0.6v6.5h-2.6v-17h3.9
	c4.9,0,6.6,2.6,6.6,5.3c0,1.7-0.6,3.3-1.8,4.4C524.3,17.6,522.9,18.1,521.3,18.1z M519.1,9.1v6.4c0,0,1,0.5,1.8,0.5
	c2.2,0,3.5-1.6,3.5-3.7c0-1.8-1.3-3.2-4-3.2C520.5,9.1,519.1,9.1,519.1,9.1z M534.8,18c-0.2-0.1-0.6-0.3-0.6-0.3v6.4h-2.6v-17h3.9
	c4.9,0,6.6,2.6,6.6,5.3c0,2.5-1.4,4.8-4.1,5.5l5,5.2v0.9h-2.4L534.8,18z M534.2,9.1v6.4c0,0,0.9,0.5,1.8,0.5c2.2,0,3.5-1.6,3.5-3.7
	c0-1.8-1.3-3.2-4-3.2C535.5,9.1,534.2,9.1,534.2,9.1z M546.4,15.5c0-4,1.8-8.9,6.2-8.9c4.4,0,6.2,5,6.2,9c0,4.1-1.8,9-6.2,9
	C548.2,24.6,546.4,19.5,546.4,15.5z M549,15.7c0,3,0.7,6.7,3.6,6.7c2.9,0,3.6-3.9,3.6-6.9c0-3-0.8-6.9-3.6-6.9
	C549.7,8.7,549,12.6,549,15.7z M563.9,24.1v-17h5.2c4.2,0,6.5,3.1,6.5,8.5c0,5.8-3,8.5-6.8,8.5H563.9z M566.5,9.1V22h2.3
	c2.9,0,4.2-2.4,4.2-6.4c0-4.1-1.2-6.5-4-6.5L566.5,9.1L566.5,9.1z M580.7,17.5V7.1h2.6v10.4c0,2.5,0.6,5,3.1,5s3.1-2.3,3.1-5V7.1
	h2.6v10.5c0,3.7-1.6,7-5.7,7C582.2,24.6,580.7,21.2,580.7,17.5z M597.1,15.6c0-2.4,0.6-4.6,1.7-6.2c1.2-1.7,3-2.8,5.2-2.8
	c2.1,0,3.8,0.7,4.7,1.3l-1,1.7c-1.3-0.7-2.3-1-3.7-1c-1.2,0-2.6,1-3.4,2.5c-0.6,1.2-0.9,2.9-0.9,4.6c0,1.6,0.2,3.2,0.8,4.3
	c0.8,1.5,1.9,2.5,3.6,2.5c1.8,0,3.3-1,3.8-1.3l1.2,1.7c-0.5,0.4-2.3,1.7-5,1.7C598.9,24.6,597.1,19.7,597.1,15.6z M618,24.1h-2.5
	V9.3h-4.2V7.1h11v2.2H618V24.1z"/>
</svg>
