<svg xmlns="http://www.w3.org/2000/svg" width="618" height="190" viewBox="0 0 618 190">
  <path d="M185.3,114.3c0,4.9,2.4,7.3,7.3,7.3h24.1V148h-24.3c-10.1,0-18.3-2.6-24.6-7.7c-6.8-5.4-10.1-13.2-10.1-23.2V71.9c0-9.9,3.4-17.7,10.1-23.2c6.3-5.2,14.5-7.7,24.6-7.7h24.3v25.9h-24.1c-4.9,0-7.3,2.4-7.3,7.3L185.3,114.3L185.3,114.3z M250.4,149c-10.7-0.2-18.9-3.7-24.6-10.4c-5.3-6.6-8-15.2-8-26v-6.2c0-0.9,0-1.5,0.1-1.7c2-23.6,12.8-35.4,32.5-35.4c10.7,0,18.9,3.6,24.8,10.8c5.3,6.7,7.9,15.4,7.9,26.3v6.2c0,9.3-2.7,17.9-8,25.9c-4.7,6.9-12.9,10.4-24.6,10.4L250.4,149L250.4,149z M258.8,104.4c0-0.6,0-0.9-0.1-1.1c-0.6-4.5-1.1-7.4-1.7-8.6c-1.3-3-3.5-4.5-6.6-4.5c-5.6,0-8.4,4.7-8.4,14.2v9.3c0,0.4,0,0.7,0.1,1c0.8,8.3,3.6,12.4,8.3,12.4c5.6,0,8.4-4.6,8.4-13.8V104.4z M300.5,74c3.2-2.3,7.4-3.5,12.5-3.5h14.6V41h24.6v107h-39.9c-5.9,0-11.1-2.1-15.5-6.2c-4.1-3.8-6.9-8.7-8.4-14.6c-0.9-3.4-1.4-8.2-1.4-14.5v-4.2c0-6.1,0.4-11.3,1.3-15.5C289.7,85.3,293.8,79,300.5,74z M313.6,92.7c-0.4,0.7-0.7,1.6-0.9,3c-0.2,1.3-0.4,3-0.6,5.2v1.8c-0.1,0.3-0.1,0.8-0.1,1.7v9c0,0.8,0.1,1.7,0.2,2.7c0.1,1.1,0.3,2.4,0.5,4c0.7,4,3,6,6.9,6h8.2v-36H319c-2,0-3.5,0.6-4.6,1.7L313.6,92.7z M360,127.2c-1-3.9-1.5-8.8-1.5-14.5v-5.9c0-0.9,0-1.5,0.1-1.7c1-11.1,3.9-19.5,8.6-25.3c5.7-7,13.7-10.6,24.1-10.6c10.8,0,18.9,3.6,24.5,10.8c5,6.6,7.5,15.4,7.5,26.4v13.2h-39.7v0.8c0.1,0.2,0.1,0.5,0.1,0.8c0.7,3.2,2.5,4.8,5.6,4.8H419V148h-35.4C371.6,148,363.7,141.1,360,127.2z M382.9,101.9h17.7c0-0.5-0.1-1.1-0.2-2c-0.1-0.8-0.3-1.9-0.5-3.2c-0.2-0.8-1-2.3-2.4-4.4c-1.7-1.4-3.7-2.1-5.9-2.1C385.8,90.2,382.9,94.1,382.9,101.9z M457.9,41v80.6H486V148h-55.7V41H457.9z M492.9,41h24.5v22.4h-24.5V41z M517.4,148h-24.5V70.5h24.5V148z M537.3,44.2c3.3-2.2,7.6-3.2,12.9-3.2h17.4v19.8h-11c-2.4,0-4.1,0.5-4.9,1.5c0,0.1-0.1,0.2-0.3,0.4c-0.8,1.1-1.3,3.8-1.4,8.2L550,75v5.9h15v19.1h-15v48h-24.5V75.3c0-2.8,0.1-5.4,0.2-7.7c0.1-2.3,0.4-4.4,0.8-6.3C527.8,53.9,531.4,48.2,537.3,44.2z M604.6,124.1l0.8,0.8c0.8,0.8,2.4,1.3,4.8,1.3h7.7V148h-14.5c-8.6,0-15.4-3.8-20.3-11.5c-2.4-3.8-3.7-8.2-3.7-12.9V90.3h-10.4V70.5h10.4V48.2H604v22.4h13.9v19.8H604v25.7C604,121.1,604.2,123.7,604.6,124.1z M145.5,144.9h-24.8v-9.4h-96v9.4H0v-34.2h145.5L145.5,144.9L145.5,144.9z M145.5,98.6h-24.8V24.8h-96v73.9H0V0h145.5V98.6z M53.7,59.4l-17.7,9.3l17.7,9.1v14.8L24.8,77.1V60.5L53.7,45C53.7,45,53.7,59.4,53.7,59.4z M72.6,98.7H56.3L73,39.3h16.3L72.6,98.7z M120.8,60.5v16.6L91.9,92.6V77.8l17.7-9.1l-17.7-9.3V45L120.8,60.5z"/>
</svg>
