<?xml version="1.0" encoding="utf-8"?>
<!-- Generator: Adobe Illustrator 17.0.0, SVG Export Plug-In . SVG Version: 6.00 Build 0)  -->
<!DOCTYPE svg PUBLIC "-//W3C//DTD SVG 1.1//EN" "http://www.w3.org/Graphics/SVG/1.1/DTD/svg11.dtd">
<svg version="1.1" id="Layer_1" xmlns="http://www.w3.org/2000/svg" xmlns:xlink="http://www.w3.org/1999/xlink" x="0px" y="0px"
	 width="492.375px" height="144.554px" viewBox="0 0 492.375 144.554" enable-background="new 0 0 492.375 144.554"
	 xml:space="preserve">
<rect y="0" opacity="0" fill="#FFFFFF" width="492.375" height="144.554"/>
<rect y="0" opacity="0" fill="none" width="492.375" height="144.554"/>
<path fill="#FFFFFF" d="M155.639,99.12c0,3.57,1.784,5.354,5.354,5.354h17.608v19.359h-17.814c-7.413,0-13.421-1.887-18.02-5.663
	c-4.942-3.981-7.414-9.644-7.414-16.991V68.126c0-7.276,2.472-12.939,7.414-16.99c4.599-3.775,10.607-5.664,18.02-5.664h17.814
	v18.947h-17.608c-3.57,0-5.354,1.786-5.354,5.354V99.12z"/>
<path fill="#FFFFFF" d="M203.313,124.554c-7.825-0.139-13.833-2.677-18.019-7.62c-3.913-4.804-5.87-11.155-5.87-19.05v-4.53
	c0-0.686,0.034-1.098,0.103-1.236c1.442-17.3,9.37-25.949,23.786-25.949c7.826,0,13.867,2.644,18.124,7.929
	c3.843,4.875,5.766,11.293,5.766,19.256v4.53c0,6.796-1.956,13.113-5.869,18.947c-3.434,5.081-9.44,7.62-18.021,7.62V124.554z
	 M209.492,91.912c0-0.412-0.035-0.685-0.103-0.824c-0.412-3.295-0.824-5.388-1.236-6.281c-0.962-2.197-2.574-3.295-4.84-3.295
	c-4.118,0-6.178,3.467-6.178,10.4v6.796c0,0.275,0.034,0.515,0.103,0.721c0.618,6.041,2.642,9.061,6.075,9.061
	c4.12,0,6.179-3.363,6.179-10.091V91.912z"/>
<path fill="#FFFFFF" d="M239.971,69.671c2.333-1.715,5.389-2.575,9.165-2.575h10.709V45.472h18.02v78.361h-29.244
	c-4.325,0-8.101-1.509-11.327-4.53c-3.021-2.814-5.081-6.384-6.178-10.709c-0.687-2.472-1.03-6.007-1.03-10.607v-3.089
	c0-4.461,0.309-8.237,0.927-11.327C232.11,77.944,235.096,73.31,239.971,69.671 M249.548,83.366
	c-0.275,0.481-0.499,1.202-0.67,2.162c-0.172,0.962-0.326,2.232-0.463,3.81v1.339c-0.069,0.206-0.103,0.617-0.103,1.235v6.591
	c0,0.55,0.052,1.219,0.155,2.007c0.102,0.79,0.222,1.769,0.36,2.935c0.479,2.953,2.162,4.428,5.046,4.428h5.972V81.512h-6.281
	c-1.442,0-2.575,0.412-3.398,1.236L249.548,83.366z"/>
<path fill="#FFFFFF" d="M283.529,108.593c-0.757-2.883-1.133-6.418-1.133-10.606v-4.325c0-0.685,0.034-1.097,0.103-1.236
	c0.754-8.099,2.848-14.277,6.281-18.534c4.186-5.149,10.056-7.723,17.608-7.723c7.894,0,13.866,2.644,17.917,7.929
	c3.638,4.806,5.458,11.259,5.458,19.358v9.68h-29.039v0.617c0.068,0.139,0.104,0.345,0.104,0.619c0.479,2.334,1.853,3.5,4.119,3.5
	h21.83v15.961h-25.949C292.04,123.833,286.273,118.754,283.529,108.593 M300.313,90.058h12.974c0-0.342-0.051-0.824-0.154-1.441
	c-0.103-0.618-0.224-1.407-0.36-2.369c-0.139-0.618-0.722-1.681-1.751-3.192c-1.236-1.029-2.677-1.544-4.325-1.544
	C302.44,81.512,300.313,84.361,300.313,90.058"/>
<polygon fill="#FFFFFF" points="355.196,45.472 355.196,104.474 375.79,104.474 375.79,123.833 335.013,123.833 335.013,45.472 "/>
<path fill="#FFFFFF" d="M380.835,45.472h17.917v16.372h-17.917V45.472z M398.752,123.833h-17.917V67.096h17.917V123.833z"/>
<path fill="#FFFFFF" d="M413.373,47.841c2.402-1.579,5.561-2.368,9.474-2.368h12.768v14.519h-8.031
	c-1.787,0-2.987,0.377-3.605,1.132c0,0.069-0.069,0.172-0.206,0.309c-0.617,0.824-0.961,2.816-1.029,5.972l-0.103,2.986v4.325
	h11.018v14.005h-11.018v35.113h-17.917V70.597c0-2.059,0.052-3.929,0.155-5.612c0.101-1.681,0.291-3.208,0.566-4.582
	C406.405,54.912,409.048,50.724,413.373,47.841"/>
<path fill="#FFFFFF" d="M462.593,106.328l0.618,0.618c0.618,0.618,1.784,0.926,3.502,0.926h5.663v15.961H461.77
	c-6.318,0-11.259-2.814-14.829-8.443c-1.785-2.815-2.676-5.973-2.676-9.474V81.615h-7.62V67.096h7.62V50.723h17.917v16.373h10.194
	v14.519h-10.194v18.843C462.182,104.098,462.319,106.054,462.593,106.328"/>
<polygon fill="#FFFFFF" points="126.547,121.564 108.412,121.564 108.412,114.65 38.136,114.65 38.136,121.564 20.001,121.564 
	20.001,96.515 126.547,96.515 "/>
<polygon fill="#FFFFFF" points="126.547,87.689 108.412,87.689 108.412,33.611 38.136,33.611 38.136,87.689 20,87.689 20,15.475 
	126.547,15.475 "/>
<polygon fill="#FFFFFF" points="59.283,58.881 46.3,65.687 59.283,72.322 59.283,83.188 38.178,71.807 38.178,59.681 59.283,48.299 
	"/>
<polygon fill="#FFFFFF" points="73.184,87.649 61.23,87.649 73.413,44.181 85.367,44.181 "/>
<polygon fill="#FFFFFF" points="108.42,59.681 108.42,71.807 87.315,83.188 87.315,72.322 100.298,65.687 87.315,58.881 
	87.315,48.299 "/>
<g>
	<path fill="#FFFFFF" d="M195.321,29.082h-3.528l-1.272,3.889h-1.992l4.057-12.337h1.944l4.081,12.337h-1.992L195.321,29.082z
		 M192.152,27.546h2.808l-1.392-4.632L192.152,27.546z"/>
	<path fill="#FFFFFF" d="M214.376,18.209c1.488,0.601,2.232,1.873,2.232,3.457c0,1.296-0.984,2.855-2.28,3.216
		c2.04,0.12,3.12,1.752,3.12,3.696c0,3.169-2.448,4.753-5.4,4.753c-1.248,0-2.568-0.288-3.769-0.601V17.85H212
		C212.792,17.85,213.632,17.922,214.376,18.209z M211.976,19.338H210.2v4.896h1.776c1.584,0,2.736-0.961,2.736-2.593
		C214.712,19.89,213.536,19.338,211.976,19.338z M211.88,25.794h-1.68v5.593c0.576,0.168,1.2,0.312,1.8,0.312
		c2.016,0,3.528-0.983,3.528-3.144C215.528,26.154,213.872,25.794,211.88,25.794z"/>
	<path fill="#FFFFFF" d="M219.968,26.731c0-2.929,1.344-6.48,4.513-6.48c3.216,0,4.512,3.6,4.512,6.552
		c0,2.953-1.296,6.553-4.512,6.553C221.24,33.355,219.968,29.683,219.968,26.731z M221.84,26.922c0,2.16,0.528,4.896,2.641,4.896
		c2.136,0,2.616-2.832,2.616-5.017c0-2.208-0.552-5.016-2.616-5.016C222.368,21.786,221.84,24.666,221.84,26.922z"/>
	<path fill="#FFFFFF" d="M232.087,26.731c0-2.929,1.344-6.48,4.513-6.48c3.216,0,4.512,3.6,4.512,6.552
		c0,2.953-1.296,6.553-4.512,6.553C233.359,33.355,232.087,29.683,232.087,26.731z M233.959,26.922c0,2.16,0.528,4.896,2.641,4.896
		c2.136,0,2.616-2.832,2.616-5.017c0-2.208-0.552-5.016-2.616-5.016C234.488,21.786,233.959,24.666,233.959,26.922z"/>
	<path fill="#FFFFFF" d="M243.823,31.507c1.584-3.024,3.216-6.001,5.064-8.881l0.264-0.408h-4.896v-1.584h7.153v1.488
		c-1.801,2.808-3.48,5.616-5.064,8.521l-0.384,0.72h5.976v1.608h-8.112V31.507z"/>
	<path fill="#FFFFFF" d="M270.127,32.971l-1.607-4.872h-4.513l-1.608,4.872h-1.968l4.8-15.121h2.064l4.801,15.121H270.127z
		 M264.463,26.514h3.601l-1.8-6.672L264.463,26.514z"/>
	<path fill="#FFFFFF" d="M274.543,20.634h1.824v10.801h4.344v1.536h-6.168V20.634z"/>
	<path fill="#FFFFFF" d="M283.351,20.634h1.824v10.801h4.345v1.536h-6.169V20.634z"/>
	<path fill="#FFFFFF" d="M292.158,20.634h6.769v1.536h-4.872v3.576h3.744v1.584h-3.744v4.057h5.088v1.584h-6.984V20.634z"/>
	<path fill="#FFFFFF" d="M304.59,23.754c0.023,0.624,0.048,0.768,0.048,0.888v8.329h-1.896V20.61h2.353l3.937,8.569
		c-0.024-0.624-0.024-0.769-0.024-0.864V20.61h1.896v12.361h-1.872L304.59,23.754z"/>
	<path fill="#FFFFFF" d="M332.142,25.434c0,3.697-1.487,7.537-5.76,7.537h-4.129V17.85h4.368
		C330.942,17.85,332.142,21.786,332.142,25.434z M324.149,19.386v12.049h2.232c3.216,0,3.816-3.408,3.816-5.952
		c0-2.473-0.456-6.097-3.673-6.097H324.149z"/>
	<path fill="#FFFFFF" d="M335.621,20.634h1.968v12.337h-1.968V20.634z"/>
	<path fill="#FFFFFF" d="M346.325,21.714c-0.864,0-1.896,0.72-2.473,1.848c-0.432,0.864-0.672,2.089-0.672,3.313
		c0,1.128,0.145,2.305,0.576,3.145c0.552,1.104,1.368,1.824,2.593,1.824c0.743,0,1.296-0.145,1.607-0.24v-4.057h1.776v5.232
		c-0.312,0.12-1.536,0.553-3.408,0.553c-3.769,0-5.04-3.48-5.04-6.529c0-1.728,0.456-3.36,1.271-4.512
		c0.864-1.248,2.185-2.04,3.769-2.04c1.44,0,2.208,0.312,3.433,0.912l-0.769,1.248C348.989,22.41,347.886,21.714,346.325,21.714z"/>
	<path fill="#FFFFFF" d="M353.837,20.634h1.968v12.337h-1.968V20.634z"/>
	<path fill="#FFFFFF" d="M363.509,32.971h-1.848V22.242h-3.049v-1.608h7.969v1.608h-3.072V32.971z"/>
	<path fill="#FFFFFF" d="M373.612,29.082h-3.528l-1.271,3.889h-1.992l4.056-12.337h1.944l4.081,12.337h-1.992L373.612,29.082z
		 M370.444,27.546h2.809l-1.393-4.632L370.444,27.546z"/>
	<path fill="#FFFFFF" d="M379.612,20.634h1.824v10.801h4.345v1.536h-6.169V20.634z"/>
	<path fill="#FFFFFF" d="M399.075,28.651c-0.695,0-1.464-0.36-1.56-0.408v4.729h-1.896V20.634h2.856c3.552,0,4.824,1.872,4.824,3.84
		c0,1.272-0.456,2.425-1.344,3.192C401.235,28.29,400.252,28.651,399.075,28.651z M397.516,22.122v4.656c0,0,0.744,0.36,1.32,0.36
		c1.632,0,2.567-1.177,2.567-2.688c0-1.345-0.936-2.328-2.928-2.328H397.516z"/>
	<path fill="#FFFFFF" d="M408.892,28.555c-0.12-0.049-0.456-0.217-0.456-0.217v4.633h-1.896V20.634h2.856
		c3.528,0,4.824,1.872,4.824,3.84c0,1.849-0.984,3.457-3,4.032l3.6,3.816v0.648h-1.775L408.892,28.555z M408.436,22.122v4.656
		c0.023,0.023,0.672,0.36,1.32,0.36c1.632,0,2.567-1.177,2.567-2.688c0-1.345-0.936-2.328-2.928-2.328H408.436z"/>
	<path fill="#FFFFFF" d="M417.363,26.731c0-2.929,1.344-6.48,4.512-6.48c3.217,0,4.513,3.6,4.513,6.552
		c0,2.953-1.296,6.553-4.513,6.553C418.635,33.355,417.363,29.683,417.363,26.731z M419.235,26.922c0,2.16,0.527,4.896,2.64,4.896
		c2.137,0,2.616-2.832,2.616-5.017c0-2.208-0.552-5.016-2.616-5.016C419.763,21.786,419.235,24.666,419.235,26.922z"/>
	<path fill="#FFFFFF" d="M430.083,32.971V20.634h3.769c3.072,0,4.729,2.256,4.729,6.192c0,4.225-2.185,6.145-4.921,6.145H430.083z
		 M431.955,22.122v9.36h1.704c2.088,0,3.024-1.776,3.024-4.632c0-2.953-0.864-4.729-2.904-4.729H431.955z"/>
	<path fill="#FFFFFF" d="M442.274,28.219v-7.585h1.873v7.585c0,1.848,0.456,3.6,2.256,3.6s2.256-1.656,2.256-3.6v-7.585h1.872v7.656
		c0,2.688-1.128,5.064-4.128,5.064S442.274,30.859,442.274,28.219z"/>
	<path fill="#FFFFFF" d="M454.227,26.802c0-1.728,0.456-3.36,1.271-4.512c0.864-1.272,2.185-2.04,3.769-2.04
		c1.561,0,2.76,0.504,3.408,0.912l-0.696,1.248c-0.936-0.48-1.704-0.696-2.712-0.696c-0.864,0-1.92,0.72-2.473,1.848
		c-0.432,0.864-0.672,2.089-0.672,3.313c0,1.128,0.145,2.305,0.576,3.145c0.552,1.104,1.368,1.824,2.593,1.824
		c1.296,0,2.424-0.696,2.735-0.912l0.841,1.224c-0.36,0.265-1.704,1.2-3.648,1.2C455.498,33.355,454.227,29.826,454.227,26.802z"/>
	<path fill="#FFFFFF" d="M469.395,32.971h-1.848V22.242h-3.049v-1.608h7.969v1.608h-3.072V32.971z"/>
</g>
</svg>
