<svg xmlns="http://www.w3.org/2000/svg" width="40" height="40" viewBox="0 0 40 40">
	<path d="M20.1,32.5c-0.2,0-0.4-0.1-0.5-0.3L14,17c-0.1-0.2,0-0.3,0.1-0.5c0.1-0.1,0.2-0.2,0.4-0.2h11.2c0.2,0,0.3,0.1,0.4,0.2s0.1,0.3,0.1,0.5l-5.6,15.2C20.5,32.4,20.2,32.5,20.1,32.5z M15.2,17.4l4.9,13.2L25,17.4H15.2z M13.2,14.1L13.2,14.1C13,14.1,13,14,12.9,14L7.1,8.3C7,8.2,6.9,7.9,7,7.8c0.1-0.2,0.3-0.3,0.5-0.3h11c0.2,0,0.4,0.1,0.5,0.3c0.1,0.2,0,0.4-0.1,0.5L13.6,14C13.5,14.1,13.4,14.1,13.2,14.1z M8.7,8.4l4.5,4.5l4.2-4.5H8.7z M11.1,15.2H2.5c-0.2,0-0.3-0.1-0.4-0.3c-0.1-0.2-0.1-0.3,0-0.5L5.3,9c0.1-0.1,0.2-0.2,0.4-0.2c0.2,0,0.3,0,0.4,0.1l5.4,5.4c0.1,0.1,0.2,0.4,0.1,0.5C11.5,15.1,11.2,15.2,11.1,15.2z M3.4,14.2h6.5l-4.1-4.1L3.4,14.2z M25,15.2h-9.7c-0.2,0-0.4-0.1-0.5-0.3c-0.1-0.2,0-0.4,0.1-0.5l4.7-5c0.1-0.1,0.2-0.2,0.4-0.2c0.1,0,0.3,0,0.4,0.1l5,5c0.1,0.1,0.2,0.4,0.1,0.5C25.4,15.1,25.2,15.2,25,15.2z M16.4,14.2h7.4L20,10.4L16.4,14.2z M27.2,14.2L27.2,14.2c-0.2,0-0.3-0.1-0.4-0.1l-5.7-5.7C21,8.3,20.9,8,21,7.9c0.1-0.2,0.3-0.3,0.5-0.3H33c0.2,0,0.4,0.1,0.5,0.3c0.1,0.2,0,0.4-0.1,0.5l-5.7,5.7C27.5,14.1,27.4,14.2,27.2,14.2z M22.7,8.5l4.5,4.5l4.5-4.5H22.7z M22.7,32h-0.2c-0.2,0-0.3-0.1-0.4-0.2s-0.1-0.3,0-0.5l6.2-14.7c0-0.1,0.1-0.1,0.1-0.2c0.1-0.1,0.2-0.2,0.4-0.2h8.7c0.2,0,0.4,0.1,0.5,0.3s0,0.4-0.1,0.5L23.1,31.7C23,31.9,22.8,32,22.7,32z M29.1,17.3l-5.3,12.4l12.5-12.4H29.1z M17.9,32.1h-0.3c-0.1,0-0.3-0.1-0.3-0.1L2.2,17.3c-0.1-0.1-0.2-0.4-0.1-0.5c0.1-0.2,0.3-0.3,0.5-0.3h9.3c0.1,0,0.3,0.1,0.4,0.1c0,0,0.1,0.1,0.1,0.2l6,14.7c0.1,0.2,0,0.3,0,0.5S18.1,32.1,17.9,32.1z M3.7,17.4l13,12.6l-5.2-12.6H3.7z M37.5,15.2h-8c-0.2,0-0.4-0.1-0.5-0.3c-0.1-0.2,0-0.4,0.1-0.5l5.3-5.3C34.5,9,34.6,8.9,34.8,9C35,9,35,9.1,35.1,9.3l2.8,5.3c0.1,0.2,0.1,0.3,0,0.5C37.9,15.1,37.7,15.2,37.5,15.2z M30.7,14.2h6l-2.1-3.9L30.7,14.2z"/>
</svg>
