<svg xmlns="http://www.w3.org/2000/svg" width="40" height="40" viewBox="0 0 40 40">
	<path d="M23.2,38h-9.8c-2.4,0-4.3-1.9-4.3-4.3V17.6c0-1,0.8-1.8,1.8-1.8h14.9c1,0,1.8,0.8,1.8,1.8V20h3.8c1.2,0.1,3.5,1,3.5,3.9c0,3.4-2.3,6.9-7.3,7.1v2.6C27.5,36.1,25.6,38,23.2,38z M10.9,16.8c-0.4,0-0.8,0.3-0.8,0.8v16.1c0,1.8,1.5,3.3,3.3,3.3h9.8c1.8,0,3.3-1.5,3.3-3.3v-3.1c0-0.3,0.2-0.5,0.5-0.5c5.1,0,6.8-3.3,6.8-6.1c0-2.7-2.5-2.9-2.6-2.9h-4.3c-0.3,0-0.5-0.2-0.5-0.5v-2.9c0-0.4-0.3-0.8-0.8-0.8L10.9,16.8L10.9,16.8z M27.3,28.6c-0.1,0-0.2,0-0.3,0c-0.3,0-0.5-0.2-0.5-0.5v-5.2c0-0.3,0.2-0.5,0.5-0.5h4c0,0,0.5,0,0.9,0.3s0.5,0.8,0.5,1.5c0,1.2-0.4,2.2-1.2,3C30,28.4,28.1,28.6,27.3,28.6z M27.5,23.4v4.2c0.8,0,2.2-0.2,3.1-1.1c0.6-0.5,0.9-1.3,0.9-2.3c0-0.5-0.1-0.7-0.2-0.8c-0.1-0.1-0.2-0.1-0.2-0.1L27.5,23.4z M17.7,15.5c-0.2,0-0.4-0.1-0.6-0.2c-0.3-0.2-0.5-0.4-0.6-0.8c-0.1-0.3-0.6-2.6,1.5-5.6c1.5-2.2,1.6-3.7,0.2-4.7c-0.3-0.2-0.4-0.5-0.5-0.8c0-0.3,0-0.7,0.2-0.9s0.5-0.4,0.8-0.5c0.3,0,0.7,0,0.9,0.2c2.5,1.8,2.6,4.9,0.3,8.1c-1.4,2-1.1,3.5-1.1,3.5c0.2,0.6-0.2,1.3-0.9,1.5l0,0l0,0C17.9,15.4,17.8,15.5,17.7,15.5z M17.8,14.5l0.1,0.5L17.8,14.5c0.1,0,0.2-0.2,0.2-0.3s-0.4-1.9,1.3-4.4C20.5,8.1,22,5.1,19.2,3c-0.1,0-0.1,0-0.2,0c0,0-0.1,0-0.2,0.1s0,0.1,0,0.2c0,0,0,0.1,0.1,0.2c1,0.8,2.4,2.6,0,6.1c-1.8,2.6-1.4,4.7-1.3,4.7C17.6,14.4,17.7,14.4,17.8,14.5C17.6,14.4,17.7,14.5,17.8,14.5z M14.3,15.5c-0.3,0-0.5-0.1-0.7-0.2c0,0,0,0-0.1,0c-0.4-0.3-1.6-1.7-0.7-5.4c0.7-3.2,0.9-3.7-1.1-5.2c-0.3-0.2-0.4-0.5-0.5-0.8c0-0.3,0-0.7,0.2-0.9c0.2-0.3,0.5-0.4,0.8-0.5c0.3,0,0.7,0,0.9,0.2c3.3,2.5,2.8,4.5,2,7.8l0,0c-0.5,2-0.2,2.8-0.1,3c0.2,0.2,0.3,0.3,0.3,0.6c0.1,0.3,0,0.7-0.1,0.9s-0.4,0.5-0.8,0.6C14.5,15.4,14.4,15.5,14.3,15.5z M14.1,14.4L14.1,14.4c0.1,0,0.1,0.1,0.3,0.1c0.1,0,0.1-0.1,0.1-0.1s0-0.1,0-0.2c0,0,0-0.1-0.1-0.1L14.3,14c-0.2-0.3-0.7-1.4-0.1-3.8l0.5,0.1l-0.5-0.1c0.8-3.3,1.1-4.6-1.7-6.7c-0.1-0.1-0.1,0-0.2,0c0,0-0.1,0-0.2,0.1s-0.1,0.1,0,0.2s0,0.1,0.1,0.2c2.5,1.9,2.2,3.1,1.5,6.3C13,13.1,13.9,14.2,14.1,14.4z M21.4,15.5c-0.3,0-0.7-0.1-0.9-0.4c-0.2-0.2-0.3-0.4-0.3-0.7c-0.1-0.4-0.3-2.2,2.5-4.8c2.4-2.2,2.8-2.6,2-4.9c-0.2-0.6,0.1-1.3,0.8-1.6l0,0c0.6-0.2,1.3,0.1,1.6,0.8c1.3,3.9-0.2,5.3-2.7,7.6c-1.5,1.4-1.7,2.2-1.7,2.4c0.1,0.4,0,0.9-0.4,1.2C22,15.4,21.7,15.5,21.4,15.5z M25.9,4.1c-0.1,0-0.2,0.2-0.2,0.3c1,3,0.1,3.8-2.3,6c-2.5,2.3-2.2,3.7-2.2,3.8s0,0.2,0.1,0.2c0.1,0.1,0.1,0.1,0.2,0.1c0,0,0.1,0,0.2-0.1s0.1-0.2,0.1-0.3c0,0,0-0.1,0-0.2c0-0.3,0.1-1.5,2.1-3.3c2.5-2.3,3.5-3.2,2.5-6.5C26.4,4,26.3,4,26.3,4C26,4.1,26,4,25.9,4.1L25.9,4.1z"/>
</svg>
