<svg xmlns="http://www.w3.org/2000/svg" width="40" height="40" viewBox="0 0 40 40">
	<path d="M9.6,28.7L9.6,28.7C5.2,28.1,2,24.4,2,20.1c0-4.8,3.9-8.7,8.7-8.7c0.2,0,0.5,0,0.7,0c0-0.1,0-0.2,0.1-0.3c0.1-0.1,0.2-0.2,0.4-0.2h7.6c0.2,0,0.3-0.1,0.3-0.3c0-0.2-0.1-0.3-0.3-0.3h-7.5c-0.1,0-0.3-0.1-0.4-0.2s-0.1-0.2-0.1-0.4c0.5-4.4,4.2-7.7,8.6-7.7c4.8,0,8.7,3.9,8.7,8.7c0,0.5-0.3,3.5-0.6,4.8l-0.1,0.5c-0.5,2.1-1,3.4-4.4,3.4h-7.6c0,0,0,0-0.1,0c-0.5,0-2.5,0.1-3.9,1.4c-0.9,0.9-1.4,2.1-1.4,3.7l-0.4,3.7c0,0.1-0.1,0.3-0.2,0.3C9.8,28.6,9.7,28.7,9.6,28.7z M10.7,12.3c-4.2,0-7.7,3.4-7.7,7.7c0,3.7,2.6,6.8,6.2,7.5l0.3-3.1c0-1.8,0.6-3.3,1.7-4.3c1.7-1.6,3.9-1.7,4.6-1.7v0.5v-0.5h7.6c2.9,0,3-0.8,3.5-2.6l0.1-0.5c0.3-1.2,0.6-4.2,0.6-4.6c0-4.2-3.4-7.7-7.7-7.7c-3.7,0-6.9,2.7-7.5,6.3h7c0.7,0,1.3,0.6,1.3,1.3s-0.6,1.3-1.3,1.3h-7c0,0.2,0,0.3-0.1,0.4s-0.3,0.2-0.4,0.1C11.4,12.4,11,12.3,10.7,12.3z M15.8,9.3c-1,0-1.8-0.8-1.8-1.8s0.8-1.8,1.8-1.8s1.8,0.8,1.8,1.8S16.8,9.3,15.8,9.3z M15.8,6.7c-0.4,0-0.8,0.4-0.8,0.8s0.4,0.8,0.8,0.8s0.8-0.4,0.8-0.8S16.2,6.7,15.8,6.7z"/>
	<path d="M20,38.1c-4.7,0-8.6-3.8-8.7-8.5c0,0,0-0.1,0.2-3.2c0.1-0.9,0.1-1.7,0.1-1.8c0-1.2,0.4-2.2,1-2.9c1.2-1.2,3.1-1.1,3.1-1.1h7.7c4.6,0,5.1-2.4,5.6-4.3l0.1-0.5c0.2-0.9,0.3-1.9,0.4-2.7c0.1-0.5,0.1-1,0.2-1.3s0.3-0.4,0.6-0.4C34.7,12,38,15.8,38,20c0,4.8-3.9,8.7-8.7,8.7c-0.2,0-0.5,0-0.7,0c0,0.1,0,0.3-0.1,0.4s-0.2,0.2-0.4,0.2h-7.7c-0.2,0-0.3,0.1-0.3,0.3s0.1,0.3,0.3,0.3h7.7c0.1,0,0.3,0.1,0.4,0.2s0.1,0.2,0.1,0.4C28.1,34.8,24.4,38.1,20,38.1z M15.8,21.6c-0.2,0-1.5,0-2.4,0.8c-0.5,0.5-0.7,1.2-0.7,2.2c0,0-0.1,0.9-0.1,1.8c-0.1,1.4-0.2,3.1-0.2,3.2c0.1,4.1,3.5,7.5,7.7,7.5c3.7,0,6.8-2.6,7.5-6.2h-7.1c-0.7,0-1.3-0.6-1.3-1.3s0.6-1.3,1.3-1.3h7.1l0,0c0-0.2,0-0.3,0.1-0.4s0.3-0.2,0.4-0.1c0.5,0.1,0.9,0.1,1.2,0.1c4.2,0,7.7-3.4,7.7-7.7c0-3.6-2.7-6.8-6.3-7.5c0,0.2-0.1,0.4-0.1,0.7c-0.1,0.8-0.2,1.9-0.5,2.8L30,16.7c-0.5,2-1.2,5.1-6.5,5.1h-7.7C15.8,21.6,15.8,21.6,15.8,21.6z M23.8,34.6c-1,0-1.8-0.8-1.8-1.8s0.8-1.8,1.8-1.8s1.8,0.8,1.8,1.8S24.7,34.6,23.8,34.6z M23.8,31.9c-0.4,0-0.8,0.4-0.8,0.8s0.4,0.8,0.8,0.8s0.8-0.4,0.8-0.8C24.6,32.3,24.2,31.9,23.8,31.9z"/>
</svg>
